<svg width="320" height="239" viewBox="0 0 320 239" fill="none" xmlns="http://www.w3.org/2000/svg">
<path fill-rule="evenodd" clip-rule="evenodd" d="M421.263 110.317L361.178 0H175.813L235.621 110.317H421.263ZM128.197 114.619C141.812 126.406 163.909 128.419 185.175 128.419H222.296L282.393 239H129.33C109.775 239 90.5102 238.434 71.5094 233.843C52.2443 228.949 35.7979 221.188 20.2072 209.414C-12.3837 185.867 -30.2394 153.69 -48.9508 119.223C-64.2634 91.3351 -79.4307 63.3674 -94.4522 35.3217C-100.631 23.8119 -106.822 12.3148 -113 0.867947H59.0393C59.895 2.37742 66.1237 13.862 73.6989 27.8246C83.7505 46.4631 93.8889 65.0549 104.113 83.5996C110.631 95.3735 116.86 105.713 128.21 114.619H128.197ZM305.647 239L245.562 128.117H430.638L491 239H305.647Z" fill="#1A1A1A"/>
</svg>
